<svg width="35" height="42" viewBox="0 0 35 42" fill="none" xmlns="http://www.w3.org/2000/svg">
<path d="M34.0822 17.0854C34.0822 16.2979 33.4438 15.6594 32.6562 15.6594C31.8686 15.6594 31.2302 16.2979 31.2302 17.0854H34.0822ZM3.66086 17.0854C3.66086 16.2979 3.02242 15.6594 2.23486 15.6594C1.44731 15.6594 0.808863 16.2979 0.808863 17.0854H3.66086ZM13.297 38.518C12.533 38.709 12.0684 39.4832 12.2594 40.2473C12.4505 41.0113 13.2247 41.4759 13.9887 41.2848L13.297 38.518ZM15.1398 39.5272L14.794 38.1438L15.1398 39.5272ZM19.7512 39.5272L20.0971 38.1438L19.7512 39.5272ZM20.9023 41.2848C21.6664 41.4759 22.4406 41.0113 22.6316 40.2473C22.8226 39.4832 22.3581 38.709 21.5941 38.518L20.9023 41.2848ZM17.4455 39.2433V40.6693V39.2433ZM23.6249 9.48009V17.0854H26.4769V9.48009H23.6249ZM11.2662 17.0854V9.48009H8.4142V17.0854H11.2662ZM17.4455 23.2648C14.0328 23.2648 11.2662 20.4982 11.2662 17.0854H8.4142C8.4142 22.0733 12.4577 26.1168 17.4455 26.1168V23.2648ZM23.6249 17.0854C23.6249 20.4982 20.8583 23.2648 17.4455 23.2648V26.1168C22.4334 26.1168 26.4769 22.0733 26.4769 17.0854H23.6249ZM17.4455 3.30076C20.8583 3.30076 23.6249 6.06734 23.6249 9.48009H26.4769C26.4769 4.49222 22.4334 0.448756 17.4455 0.448756V3.30076ZM17.4455 0.448756C12.4577 0.448756 8.4142 4.49222 8.4142 9.48009H11.2662C11.2662 6.06734 14.0328 3.30076 17.4455 3.30076V0.448756ZM31.2302 17.0854C31.2302 24.6985 25.0586 30.8701 17.4455 30.8701V33.7221C26.6337 33.7221 34.0822 26.2736 34.0822 17.0854H31.2302ZM17.4455 30.8701C9.83247 30.8701 3.66086 24.6985 3.66086 17.0854H0.808863C0.808863 26.2736 8.25735 33.7221 17.4455 33.7221V30.8701ZM16.0195 32.2961V38.0001H18.8715V32.2961H16.0195ZM13.9887 41.2848L15.4857 40.9106L14.794 38.1438L13.297 38.518L13.9887 41.2848ZM19.4054 40.9106L20.9023 41.2848L21.5941 38.518L20.0971 38.1438L19.4054 40.9106ZM15.4857 40.9106C16.1291 40.7498 16.7873 40.6693 17.4455 40.6693V37.8173C16.555 37.8173 15.6644 37.9261 14.794 38.1438L15.4857 40.9106ZM17.4455 40.6693C18.1038 40.6693 18.762 40.7498 19.4054 40.9106L20.0971 38.1438C19.2266 37.9261 18.3361 37.8173 17.4455 37.8173V40.6693ZM16.0195 38.0001V39.2433H18.8715V38.0001H16.0195Z" fill="#72777A"/>
</svg>
