<svg width="39" height="39" viewBox="0 0 39 39" fill="none" xmlns="http://www.w3.org/2000/svg">
<path d="M4.44642 11.5098L5.8271 11.8664L4.44642 11.5098ZM11.1007 5.24669L11.3693 6.64716L11.1007 5.24669ZM15.0263 21.823L14.624 20.455L15.0263 21.823ZM17.1306 23.9273L15.7625 23.525L17.1306 23.9273ZM27.4439 34.5072L27.8005 35.8879L27.4439 34.5072ZM33.707 27.8529L35.1074 28.1215L33.707 27.8529ZM37.0431 10.4575L35.6426 10.1889L37.0431 10.4575ZM28.4961 1.91052L28.2275 0.510048L28.4961 1.91052ZM7.14065 29.7963C6.58376 30.3532 6.58376 31.2561 7.14065 31.813C7.69754 32.3699 8.60043 32.3699 9.15732 31.813L7.14065 29.7963ZM11.8462 29.1241C12.4031 28.5672 12.4031 27.6643 11.8462 27.1075C11.2893 26.5506 10.3864 26.5506 9.82954 27.1075L11.8462 29.1241ZM8.4851 36.5186C7.92821 37.0755 7.92821 37.9784 8.4851 38.5352C9.04198 39.0921 9.94488 39.0921 10.5018 38.5352L8.4851 36.5186ZM13.1907 35.8464C13.7475 35.2895 13.7475 34.3866 13.1907 33.8297C12.6338 33.2728 11.7309 33.2728 11.174 33.8297L13.1907 35.8464ZM0.418424 28.4519C-0.138464 29.0088 -0.138464 29.9117 0.418423 30.4686C0.975311 31.0255 1.8782 31.0255 2.43509 30.4686L0.418424 28.4519ZM5.12398 27.7797C5.68087 27.2228 5.68087 26.3199 5.12398 25.763C4.5671 25.2061 3.6642 25.2061 3.10731 25.763L5.12398 27.7797ZM35.6426 10.1889L32.3065 27.5843L35.1074 28.1215L38.4436 10.7261L35.6426 10.1889ZM11.3693 6.64716L28.7647 3.311L28.2275 0.510048L10.8321 3.84621L11.3693 6.64716ZM5.8271 11.8664C6.51445 9.20566 8.67915 7.1631 11.3693 6.64716L10.8321 3.84621C7.0507 4.57143 4.02654 7.43379 3.06575 11.1531L5.8271 11.8664ZM14.624 20.455C9.39076 21.9939 4.45326 17.1847 5.8271 11.8664L3.06575 11.1531C1.14748 18.5789 8.03418 25.3656 15.4286 23.1911L14.624 20.455ZM18.4987 24.3296C19.1955 21.9598 16.9938 19.758 14.624 20.455L15.4286 23.1911C15.6328 23.131 15.8226 23.3208 15.7625 23.525L18.4987 24.3296ZM27.0872 33.1266C21.7689 34.5004 16.9597 29.5629 18.4987 24.3296L15.7625 23.525C13.588 30.9195 20.3747 37.8062 27.8005 35.8879L27.0872 33.1266ZM32.3065 27.5843C31.7906 30.2745 29.748 32.4392 27.0872 33.1266L27.8005 35.8879C31.5199 34.9271 34.3822 31.9029 35.1074 28.1215L32.3065 27.5843ZM38.4436 10.7261C39.6055 4.66728 34.2863 -0.65193 28.2275 0.510048L28.7647 3.311C32.8438 2.5287 36.4249 6.10984 35.6426 10.1889L38.4436 10.7261ZM9.15732 31.813L11.8462 29.1241L9.82954 27.1075L7.14065 29.7963L9.15732 31.813ZM10.5018 38.5352L13.1907 35.8464L11.174 33.8297L8.4851 36.5186L10.5018 38.5352ZM2.43509 30.4686L5.12398 27.7797L3.10731 25.763L0.418424 28.4519L2.43509 30.4686Z" fill="#F2F4F5"/>
</svg>
