<svg width="277" height="52" viewBox="0 0 277 52" fill="none" xmlns="http://www.w3.org/2000/svg">
<path d="M11.74 8.72992C11.6178 8.33369 11.449 7.97904 11.2338 7.66597C11.0234 7.348 10.769 7.07651 10.4706 6.85149C10.1771 6.62647 9.83961 6.45771 9.45806 6.3452C9.0765 6.2278 8.66071 6.1691 8.21067 6.1691C7.40353 6.1691 6.68445 6.37211 6.05341 6.77812C5.42238 7.18413 4.92587 7.78092 4.56388 8.56849C4.20678 9.35117 4.02824 10.3051 4.02824 11.4302C4.02824 12.565 4.20678 13.5263 4.56388 14.3138C4.92098 15.1014 5.41749 15.7006 6.05341 16.1115C6.68934 16.5176 7.42799 16.7206 8.26937 16.7206C9.03248 16.7206 9.69286 16.5738 10.2505 16.2803C10.8131 15.9868 11.246 15.571 11.5493 15.0329C11.8526 14.4899 12.0042 13.854 12.0042 13.1251L12.6206 13.2205H8.54086V11.0926H14.6384V12.8977C14.6384 14.1842 14.3645 15.2971 13.8166 16.2363C13.2687 17.1755 12.5154 17.8995 11.5566 18.4082C10.5978 18.9121 9.49719 19.164 8.25469 19.164C6.87033 19.164 5.65474 18.8534 4.60791 18.2321C3.56597 17.606 2.75149 16.7181 2.16449 15.5686C1.58237 14.4141 1.29131 13.0444 1.29131 11.4595C1.29131 10.2464 1.46252 9.16284 1.80494 8.20895C2.15226 7.25506 2.63654 6.44548 3.25779 5.7802C3.87904 5.11004 4.60791 4.6013 5.44439 4.25399C6.28088 3.90178 7.19074 3.72568 8.17398 3.72568C9.00557 3.72568 9.78091 3.84797 10.5 4.09256C11.2191 4.33225 11.8575 4.67467 12.4151 5.11982C12.9777 5.56497 13.4399 6.09328 13.8019 6.70474C14.1639 7.31621 14.4012 7.99127 14.5137 8.72992H11.74ZM22.0695 19.1787C20.9689 19.1787 20.015 18.9365 19.2079 18.4522C18.4008 17.968 17.7746 17.2904 17.3295 16.4197C16.8892 15.549 16.6691 14.5315 16.6691 13.3673C16.6691 12.203 16.8892 11.1831 17.3295 10.3075C17.7746 9.43188 18.4008 8.75193 19.2079 8.26765C20.015 7.78337 20.9689 7.54123 22.0695 7.54123C23.1702 7.54123 24.1241 7.78337 24.9312 8.26765C25.7383 8.75193 26.362 9.43188 26.8023 10.3075C27.2474 11.1831 27.47 12.203 27.47 13.3673C27.47 14.5315 27.2474 15.549 26.8023 16.4197C26.362 17.2904 25.7383 17.968 24.9312 18.4522C24.1241 18.9365 23.1702 19.1787 22.0695 19.1787ZM22.0842 17.0508C22.681 17.0508 23.18 16.8869 23.5811 16.5591C23.9822 16.2265 24.2806 15.7813 24.4763 15.2237C24.6768 14.666 24.7771 14.0448 24.7771 13.3599C24.7771 12.6702 24.6768 12.0465 24.4763 11.4889C24.2806 10.9263 23.9822 10.4787 23.5811 10.1461C23.18 9.81344 22.681 9.64712 22.0842 9.64712C21.4728 9.64712 20.964 9.81344 20.558 10.1461C20.1569 10.4787 19.856 10.9263 19.6555 11.4889C19.4598 12.0465 19.362 12.6702 19.362 13.3599C19.362 14.0448 19.4598 14.666 19.6555 15.2237C19.856 15.7813 20.1569 16.2265 20.558 16.5591C20.964 16.8869 21.4728 17.0508 22.0842 17.0508ZM39.4083 7.68798L35.3946 18.9585H32.4596L28.4459 7.68798H31.2782L33.8684 16.0602H33.9858L36.5833 7.68798H39.4083ZM45.8525 19.1787C44.7225 19.1787 43.7466 18.9439 42.9248 18.4742C42.1079 17.9997 41.4793 17.3296 41.0391 16.4637C40.5988 15.593 40.3787 14.5682 40.3787 13.3893C40.3787 12.23 40.5988 11.2125 41.0391 10.3369C41.4842 9.45634 42.1055 8.7715 42.9028 8.28232C43.7002 7.78826 44.6369 7.54123 45.7131 7.54123C46.4077 7.54123 47.0632 7.65374 47.6796 7.87876C48.3008 8.09889 48.8487 8.44131 49.3232 8.90602C49.8026 9.37074 50.1793 9.96263 50.4532 10.6817C50.7271 11.3959 50.8641 12.2471 50.8641 13.2352V14.0497H41.6261V12.2593H48.318C48.3131 11.7506 48.203 11.2981 47.9878 10.9018C47.7725 10.5007 47.4717 10.1852 47.0852 9.9553C46.7037 9.72539 46.2585 9.61043 45.7498 9.61043C45.2068 9.61043 44.7299 9.74251 44.319 10.0067C43.9081 10.2659 43.5877 10.6083 43.3577 11.0339C43.1327 11.4546 43.0178 11.9169 43.0129 12.4207V13.9836C43.0129 14.6391 43.1327 15.2017 43.3724 15.6713C43.6121 16.136 43.9472 16.4931 44.3777 16.7426C44.8081 16.9872 45.312 17.1095 45.8892 17.1095C46.2757 17.1095 46.6254 17.0556 46.9385 16.948C47.2516 16.8355 47.5231 16.6716 47.753 16.4564C47.9829 16.2412 48.1565 15.9746 48.2739 15.6566L50.754 15.9354C50.5975 16.5909 50.2991 17.1633 49.8589 17.6524C49.4235 18.1367 48.8658 18.5134 48.1859 18.7824C47.5059 19.0466 46.7281 19.1787 45.8525 19.1787ZM53.1112 18.9585V7.68798H55.6867V9.5664H55.8041C56.0096 8.9158 56.3618 8.4144 56.8608 8.0622C57.3646 7.7051 57.9394 7.52655 58.5851 7.52655C58.7318 7.52655 58.8957 7.53389 59.0767 7.54857C59.2626 7.55835 59.4167 7.57547 59.539 7.59993V10.0433C59.4265 10.0042 59.2479 9.96997 59.0033 9.94062C58.7636 9.90638 58.5313 9.88926 58.3063 9.88926C57.822 9.88926 57.3866 9.99443 57.0002 10.2048C56.6186 10.4102 56.3178 10.6964 56.0976 11.0633C55.8775 11.4302 55.7675 11.8533 55.7675 12.3327V18.9585H53.1112ZM63.9599 12.3547V18.9585H61.3037V7.68798H63.8425V9.60309H63.9746C64.2338 8.97206 64.6472 8.47066 65.2146 8.09889C65.7869 7.72711 66.4938 7.54123 67.3352 7.54123C68.113 7.54123 68.7905 7.70755 69.3677 8.04018C69.9498 8.37282 70.3998 8.85466 70.7178 9.48569C71.0407 10.1167 71.1996 10.8823 71.1947 11.7824V18.9585H68.5385V12.1933C68.5385 11.4399 68.3429 10.8505 67.9515 10.4249C67.5651 9.99932 67.0294 9.78653 66.3446 9.78653C65.8799 9.78653 65.4665 9.88926 65.1045 10.0947C64.7474 10.2953 64.4662 10.5863 64.2607 10.9679C64.0602 11.3494 63.9599 11.8117 63.9599 12.3547ZM73.895 18.9585V7.68798H76.4338V9.60309H76.5659C76.8007 8.95738 77.1896 8.45354 77.7325 8.09155C78.2755 7.72467 78.9237 7.54123 79.677 7.54123C80.4401 7.54123 81.0834 7.72711 81.6068 8.09889C82.1351 8.46576 82.5069 8.96717 82.7221 9.60309H82.8395C83.089 8.97695 83.5097 8.47799 84.1016 8.10622C84.6984 7.72956 85.4052 7.54123 86.2221 7.54123C87.2592 7.54123 88.1055 7.86897 88.761 8.52447C89.4164 9.17996 89.7442 10.1363 89.7442 11.3935V18.9585H87.0806V11.8044C87.0806 11.1049 86.8948 10.5937 86.523 10.2708C86.1512 9.94307 85.6963 9.77919 85.1582 9.77919C84.5174 9.77919 84.016 9.97976 83.654 10.3809C83.2969 10.7771 83.1183 11.2932 83.1183 11.9291V18.9585H80.5135V11.6943C80.5135 11.1122 80.3374 10.6475 79.9852 10.3002C79.6379 9.95285 79.1829 9.77919 78.6204 9.77919C78.2388 9.77919 77.8915 9.87703 77.5785 10.0727C77.2654 10.2635 77.0159 10.535 76.83 10.8872C76.6441 11.2345 76.5512 11.6405 76.5512 12.1052V18.9585H73.895ZM97.4285 19.1787C96.2985 19.1787 95.3226 18.9439 94.5008 18.4742C93.6839 17.9997 93.0553 17.3296 92.615 16.4637C92.1748 15.593 91.9546 14.5682 91.9546 13.3893C91.9546 12.23 92.1748 11.2125 92.615 10.3369C93.0602 9.45634 93.6814 8.7715 94.4788 8.28232C95.2761 7.78826 96.2129 7.54123 97.2891 7.54123C97.9837 7.54123 98.6392 7.65374 99.2555 7.87876C99.8768 8.09889 100.425 8.44131 100.899 8.90602C101.379 9.37074 101.755 9.96263 102.029 10.6817C102.303 11.3959 102.44 12.2471 102.44 13.2352V14.0497H93.202V12.2593H99.8939C99.889 11.7506 99.779 11.2981 99.5637 10.9018C99.3485 10.5007 99.0476 10.1852 98.6612 9.9553C98.2796 9.72539 97.8345 9.61043 97.3258 9.61043C96.7828 9.61043 96.3058 9.74251 95.8949 10.0067C95.484 10.2659 95.1636 10.6083 94.9337 11.0339C94.7087 11.4546 94.5937 11.9169 94.5888 12.4207V13.9836C94.5888 14.6391 94.7087 15.2017 94.9484 15.6713C95.1881 16.136 95.5232 16.4931 95.9536 16.7426C96.3841 16.9872 96.8879 17.1095 97.4652 17.1095C97.8516 17.1095 98.2014 17.0556 98.5144 16.948C98.8275 16.8355 99.099 16.6716 99.3289 16.4564C99.5588 16.2412 99.7325 15.9746 99.8499 15.6566L102.33 15.9354C102.173 16.5909 101.875 17.1633 101.435 17.6524C100.999 18.1367 100.442 18.5134 99.7618 18.7824C99.0819 19.0466 98.3041 19.1787 97.4285 19.1787ZM107.343 12.3547V18.9585H104.687V7.68798H107.226V9.60309H107.358C107.617 8.97206 108.031 8.47066 108.598 8.09889C109.17 7.72711 109.877 7.54123 110.719 7.54123C111.496 7.54123 112.174 7.70755 112.751 8.04018C113.333 8.37282 113.783 8.85466 114.101 9.48569C114.424 10.1167 114.583 10.8823 114.578 11.7824V18.9585H111.922V12.1933C111.922 11.4399 111.726 10.8505 111.335 10.4249C110.949 9.99932 110.413 9.78653 109.728 9.78653C109.263 9.78653 108.85 9.88926 108.488 10.0947C108.131 10.2953 107.85 10.5863 107.644 10.9679C107.444 11.3494 107.343 11.8117 107.343 12.3547ZM122.906 7.68798V9.74251H116.427V7.68798H122.906ZM118.027 4.98775H120.683V15.5686C120.683 15.9257 120.737 16.1996 120.845 16.3904C120.957 16.5763 121.104 16.7034 121.285 16.7719C121.466 16.8404 121.666 16.8746 121.887 16.8746C122.053 16.8746 122.204 16.8624 122.341 16.838C122.483 16.8135 122.591 16.7915 122.664 16.7719L123.112 18.8485C122.97 18.8974 122.767 18.9512 122.503 19.0099C122.244 19.0686 121.926 19.1028 121.549 19.1126C120.884 19.1322 120.284 19.0319 119.751 18.8118C119.218 18.5868 118.795 18.2394 118.482 17.7698C118.174 17.3002 118.022 16.7132 118.027 16.0088V4.98775ZM130.371 18.9585V3.93113H140.144V6.21312H133.093V10.2928H139.638V12.5748H133.093V16.6765H140.203V18.9585H130.371ZM149.635 11.6063V13.7929H142.87V11.6063H149.635ZM152.429 18.9585V7.68798H154.968V9.60309H155.1C155.335 8.95738 155.724 8.45354 156.267 8.09155C156.81 7.72467 157.458 7.54123 158.211 7.54123C158.974 7.54123 159.618 7.72711 160.141 8.09889C160.669 8.46576 161.041 8.96717 161.256 9.60309H161.374C161.623 8.97695 162.044 8.47799 162.636 8.10622C163.233 7.72956 163.94 7.54123 164.756 7.54123C165.793 7.54123 166.64 7.86897 167.295 8.52447C167.951 9.17996 168.278 10.1363 168.278 11.3935V18.9585H165.615V11.8044C165.615 11.1049 165.429 10.5937 165.057 10.2708C164.685 9.94307 164.231 9.77919 163.692 9.77919C163.052 9.77919 162.55 9.97976 162.188 10.3809C161.831 10.7771 161.653 11.2932 161.653 11.9291V18.9585H159.048V11.6943C159.048 11.1122 158.872 10.6475 158.519 10.3002C158.172 9.95285 157.717 9.77919 157.155 9.77919C156.773 9.77919 156.426 9.87703 156.113 10.0727C155.8 10.2635 155.55 10.535 155.364 10.8872C155.178 11.2345 155.085 11.6405 155.085 12.1052V18.9585H152.429ZM174.216 19.186C173.502 19.186 172.859 19.0588 172.287 18.8044C171.719 18.5452 171.269 18.1636 170.937 17.6598C170.609 17.1559 170.445 16.5347 170.445 15.796C170.445 15.1601 170.562 14.6342 170.797 14.2184C171.032 13.8026 171.352 13.47 171.758 13.2205C172.164 12.971 172.622 12.7827 173.13 12.6555C173.644 12.5235 174.175 12.4281 174.723 12.3694C175.383 12.3009 175.919 12.2397 176.33 12.1859C176.741 12.1272 177.039 12.0392 177.225 11.9218C177.416 11.7995 177.511 11.6111 177.511 11.3568V11.3128C177.511 10.76 177.347 10.332 177.019 10.0287C176.692 9.72539 176.22 9.57374 175.603 9.57374C174.953 9.57374 174.437 9.7156 174.055 9.99932C173.678 10.283 173.424 10.6181 173.292 11.0046L170.812 10.6524C171.007 9.96753 171.33 9.39519 171.78 8.93537C172.23 8.47066 172.781 8.12334 173.431 7.89343C174.082 7.65863 174.801 7.54123 175.589 7.54123C176.132 7.54123 176.672 7.60482 177.21 7.73201C177.748 7.85919 178.24 8.06953 178.685 8.36304C179.13 8.65165 179.487 9.04544 179.756 9.54439C180.03 10.0433 180.167 10.667 180.167 11.4155V18.9585H177.614V17.4103H177.526C177.364 17.7234 177.137 18.0169 176.843 18.2908C176.555 18.5599 176.19 18.7775 175.75 18.9439C175.315 19.1053 174.803 19.186 174.216 19.186ZM174.906 17.2342C175.439 17.2342 175.902 17.129 176.293 16.9187C176.684 16.7034 176.985 16.4197 177.195 16.0675C177.411 15.7153 177.518 15.3313 177.518 14.9155V13.5874C177.435 13.6559 177.293 13.7195 177.093 13.7782C176.897 13.8369 176.677 13.8882 176.432 13.9323C176.188 13.9763 175.946 14.0154 175.706 14.0497C175.466 14.0839 175.258 14.1133 175.082 14.1377C174.686 14.1915 174.331 14.2796 174.018 14.4019C173.705 14.5242 173.458 14.6954 173.277 14.9155C173.096 15.1307 173.006 15.4096 173.006 15.752C173.006 16.2412 173.184 16.6105 173.541 16.86C173.898 17.1095 174.353 17.2342 174.906 17.2342ZM182.838 18.9585V7.68798H185.414V9.5664H185.531C185.736 8.9158 186.089 8.4144 186.588 8.0622C187.091 7.7051 187.666 7.52655 188.312 7.52655C188.459 7.52655 188.623 7.53389 188.804 7.54857C188.989 7.55835 189.144 7.57547 189.266 7.59993V10.0433C189.153 10.0042 188.975 9.96997 188.73 9.94062C188.49 9.90638 188.258 9.88926 188.033 9.88926C187.549 9.88926 187.113 9.99443 186.727 10.2048C186.345 10.4102 186.045 10.6964 185.824 11.0633C185.604 11.4302 185.494 11.8533 185.494 12.3327V18.9585H182.838ZM193.452 15.4218L193.445 12.2153H193.87L197.921 7.68798H201.024L196.042 13.2352H195.492L193.452 15.4218ZM191.031 18.9585V3.93113H193.687V18.9585H191.031ZM198.104 18.9585L194.435 13.8295L196.226 11.9585L201.281 18.9585H198.104ZM207.32 19.1787C206.19 19.1787 205.214 18.9439 204.392 18.4742C203.575 17.9997 202.947 17.3296 202.507 16.4637C202.066 15.593 201.846 14.5682 201.846 13.3893C201.846 12.23 202.066 11.2125 202.507 10.3369C202.952 9.45634 203.573 8.7715 204.37 8.28232C205.168 7.78826 206.104 7.54123 207.181 7.54123C207.875 7.54123 208.531 7.65374 209.147 7.87876C209.768 8.09889 210.316 8.44131 210.791 8.90602C211.27 9.37074 211.647 9.96263 211.921 10.6817C212.195 11.3959 212.332 12.2471 212.332 13.2352V14.0497H203.094V12.2593H209.785C209.781 11.7506 209.67 11.2981 209.455 10.9018C209.24 10.5007 208.939 10.1852 208.553 9.9553C208.171 9.72539 207.726 9.61043 207.217 9.61043C206.674 9.61043 206.197 9.74251 205.786 10.0067C205.376 10.2659 205.055 10.6083 204.825 11.0339C204.6 11.4546 204.485 11.9169 204.48 12.4207V13.9836C204.48 14.6391 204.6 15.2017 204.84 15.6713C205.08 16.136 205.415 16.4931 205.845 16.7426C206.276 16.9872 206.779 17.1095 207.357 17.1095C207.743 17.1095 208.093 17.0556 208.406 16.948C208.719 16.8355 208.991 16.6716 209.22 16.4564C209.45 16.2412 209.624 15.9746 209.741 15.6566L212.221 15.9354C212.065 16.5909 211.767 17.1633 211.326 17.6524C210.891 18.1367 210.333 18.5134 209.653 18.7824C208.973 19.0466 208.196 19.1787 207.32 19.1787ZM220.207 7.68798V9.74251H213.728V7.68798H220.207ZM215.327 4.98775H217.983V15.5686C217.983 15.9257 218.037 16.1996 218.145 16.3904C218.257 16.5763 218.404 16.7034 218.585 16.7719C218.766 16.8404 218.967 16.8746 219.187 16.8746C219.353 16.8746 219.505 16.8624 219.642 16.838C219.783 16.8135 219.891 16.7915 219.964 16.7719L220.412 18.8485C220.27 18.8974 220.067 18.9512 219.803 19.0099C219.544 19.0686 219.226 19.1028 218.849 19.1126C218.184 19.1322 217.585 19.0319 217.051 18.8118C216.518 18.5868 216.095 18.2394 215.782 17.7698C215.474 17.3002 215.322 16.7132 215.327 16.0088V4.98775ZM222.428 23.185V7.68798H225.04V9.55173H225.194C225.331 9.27779 225.525 8.98673 225.774 8.67856C226.024 8.36548 226.361 8.09889 226.787 7.87876C227.212 7.65374 227.755 7.54123 228.416 7.54123C229.286 7.54123 230.071 7.7638 230.771 8.20895C231.475 8.64921 232.033 9.30225 232.444 10.1681C232.86 11.029 233.068 12.0856 233.068 13.3379C233.068 14.5755 232.865 15.6273 232.459 16.4931C232.053 17.3589 231.5 18.0193 230.8 18.4742C230.101 18.9292 229.308 19.1566 228.423 19.1566C227.777 19.1566 227.242 19.049 226.816 18.8338C226.39 18.6186 226.048 18.3593 225.789 18.056C225.534 17.7478 225.336 17.4568 225.194 17.1828H225.084V23.185H222.428ZM225.033 13.3233C225.033 14.0521 225.136 14.6905 225.341 15.2384C225.551 15.7862 225.852 16.2143 226.244 16.5224C226.64 16.8257 227.119 16.9774 227.682 16.9774C228.269 16.9774 228.76 16.8208 229.157 16.5078C229.553 16.1898 229.851 15.7569 230.052 15.209C230.257 14.6562 230.36 14.0277 230.36 13.3233C230.36 12.6237 230.26 12.0025 230.059 11.4595C229.859 10.9165 229.56 10.4909 229.164 10.1828C228.768 9.87458 228.274 9.72049 227.682 9.72049C227.114 9.72049 226.633 9.86969 226.236 10.1681C225.84 10.4665 225.539 10.8847 225.334 11.4228C225.133 11.9609 225.033 12.5944 225.033 13.3233ZM237.998 3.93113V18.9585H235.342V3.93113H237.998ZM243.973 19.186C243.259 19.186 242.616 19.0588 242.043 18.8044C241.476 18.5452 241.026 18.1636 240.693 17.6598C240.365 17.1559 240.202 16.5347 240.202 15.796C240.202 15.1601 240.319 14.6342 240.554 14.2184C240.789 13.8026 241.109 13.47 241.515 13.2205C241.921 12.971 242.378 12.7827 242.887 12.6555C243.401 12.5235 243.932 12.4281 244.479 12.3694C245.14 12.3009 245.675 12.2397 246.086 12.1859C246.497 12.1272 246.796 12.0392 246.982 11.9218C247.172 11.7995 247.268 11.6111 247.268 11.3568V11.3128C247.268 10.76 247.104 10.332 246.776 10.0287C246.448 9.72539 245.976 9.57374 245.36 9.57374C244.709 9.57374 244.193 9.7156 243.812 9.99932C243.435 10.283 243.181 10.6181 243.049 11.0046L240.568 10.6524C240.764 9.96753 241.087 9.39519 241.537 8.93537C241.987 8.47066 242.537 8.12334 243.188 7.89343C243.839 7.65863 244.558 7.54123 245.345 7.54123C245.888 7.54123 246.429 7.60482 246.967 7.73201C247.505 7.85919 247.997 8.06953 248.442 8.36304C248.887 8.65165 249.244 9.04544 249.513 9.54439C249.787 10.0433 249.924 10.667 249.924 11.4155V18.9585H247.37V17.4103H247.282C247.121 17.7234 246.893 18.0169 246.6 18.2908C246.311 18.5599 245.947 18.7775 245.507 18.9439C245.071 19.1053 244.56 19.186 243.973 19.186ZM244.663 17.2342C245.196 17.2342 245.658 17.129 246.05 16.9187C246.441 16.7034 246.742 16.4197 246.952 16.0675C247.167 15.7153 247.275 15.3313 247.275 14.9155V13.5874C247.192 13.6559 247.05 13.7195 246.849 13.7782C246.654 13.8369 246.434 13.8882 246.189 13.9323C245.944 13.9763 245.702 14.0154 245.463 14.0497C245.223 14.0839 245.015 14.1133 244.839 14.1377C244.443 14.1915 244.088 14.2796 243.775 14.4019C243.462 14.5242 243.215 14.6954 243.034 14.9155C242.853 15.1307 242.762 15.4096 242.762 15.752C242.762 16.2412 242.941 16.6105 243.298 16.86C243.655 17.1095 244.11 17.2342 244.663 17.2342ZM257.511 19.1787C256.386 19.1787 255.42 18.9316 254.613 18.4376C253.81 17.9435 253.192 17.2611 252.756 16.3904C252.326 15.5147 252.11 14.5071 252.11 13.3673C252.11 12.2226 252.331 11.2125 252.771 10.3369C253.211 9.45634 253.832 8.7715 254.635 8.28232C255.442 7.78826 256.396 7.54123 257.496 7.54123C258.411 7.54123 259.221 7.70999 259.925 8.04752C260.634 8.38016 261.199 8.85221 261.62 9.46368C262.041 10.0703 262.28 10.7796 262.339 11.5916H259.8C259.698 11.0486 259.453 10.5961 259.067 10.2341C258.685 9.86725 258.174 9.68381 257.533 9.68381C256.99 9.68381 256.513 9.83056 256.102 10.1241C255.691 10.4127 255.371 10.8285 255.141 11.3715C254.916 11.9144 254.803 12.565 254.803 13.3233C254.803 14.0913 254.916 14.7516 255.141 15.3044C255.366 15.8523 255.681 16.2754 256.087 16.5738C256.498 16.8673 256.98 17.0141 257.533 17.0141C257.924 17.0141 258.274 16.9407 258.582 16.7939C258.895 16.6423 259.157 16.4246 259.367 16.1409C259.578 15.8572 259.722 15.5123 259.8 15.1063H262.339C262.276 15.9036 262.041 16.6105 261.635 17.2269C261.229 17.8383 260.676 18.3177 259.976 18.665C259.277 19.0074 258.455 19.1787 257.511 19.1787ZM269.51 19.1787C268.38 19.1787 267.404 18.9439 266.582 18.4742C265.765 17.9997 265.137 17.3296 264.696 16.4637C264.256 15.593 264.036 14.5682 264.036 13.3893C264.036 12.23 264.256 11.2125 264.696 10.3369C265.141 9.45634 265.763 8.7715 266.56 8.28232C267.357 7.78826 268.294 7.54123 269.37 7.54123C270.065 7.54123 270.72 7.65374 271.337 7.87876C271.958 8.09889 272.506 8.44131 272.98 8.90602C273.46 9.37074 273.836 9.96263 274.11 10.6817C274.384 11.3959 274.521 12.2471 274.521 13.2352V14.0497H265.283V12.2593H271.975C271.97 11.7506 271.86 11.2981 271.645 10.9018C271.43 10.5007 271.129 10.1852 270.742 9.9553C270.361 9.72539 269.916 9.61043 269.407 9.61043C268.864 9.61043 268.387 9.74251 267.976 10.0067C267.565 10.2659 267.245 10.6083 267.015 11.0339C266.79 11.4546 266.675 11.9169 266.67 12.4207V13.9836C266.67 14.6391 266.79 15.2017 267.03 15.6713C267.269 16.136 267.604 16.4931 268.035 16.7426C268.465 16.9872 268.969 17.1095 269.546 17.1095C269.933 17.1095 270.283 17.0556 270.596 16.948C270.909 16.8355 271.18 16.6716 271.41 16.4564C271.64 16.2412 271.814 15.9746 271.931 15.6566L274.411 15.9354C274.255 16.5909 273.956 17.1633 273.516 17.6524C273.081 18.1367 272.523 18.5134 271.843 18.7824C271.163 19.0466 270.385 19.1787 269.51 19.1787Z" fill="#F8F8F8"/>
<path d="M22.9345 38.4527C22.9345 34.6621 20.897 31.2031 17.6276 29.3078C14.3108 27.3651 10.2832 27.3651 7.01381 29.3078C3.69701 31.2031 1.70693 34.6621 1.70693 38.4527C1.70693 42.2907 3.69701 45.7497 7.01381 47.645C10.2832 49.5877 14.3108 49.5877 17.6276 47.645C20.897 45.7497 22.9345 42.2907 22.9345 38.4527ZM0.190674 38.4527C0.190674 34.1409 2.46505 30.1607 6.25569 27.9811C9.99893 25.8015 14.5951 25.8015 18.3857 27.9811C22.129 30.1607 24.4507 34.1409 24.4507 38.4527C24.4507 42.8119 22.129 46.7921 18.3857 48.9717C14.5951 51.1513 9.99893 51.1513 6.25569 48.9717C2.46505 46.7921 0.190674 42.8119 0.190674 38.4527ZM11.5626 31.6296C11.5626 31.2505 11.8943 30.8715 12.3207 30.8715C12.6998 30.8715 13.0788 31.2505 13.0788 31.6296L13.0788 38.0737L17.2485 40.8692C17.6276 41.1062 17.7223 41.58 17.4854 41.9117C17.2485 42.2907 16.7747 42.3855 16.443 42.1486L11.8943 39.1161C11.6573 38.9739 11.5626 38.737 11.5626 38.4527L11.5626 31.6296Z" fill="#F8F8F8"/>
<path d="M30.9372 44.1803H29.4534L33.7451 32.4923H35.2061L39.4977 44.1803H38.0139L34.5212 34.3414H34.4299L30.9372 44.1803ZM31.4851 39.6147H37.466V40.8702H31.4851V39.6147ZM49.5592 35.4143V36.5557H44.8338V35.4143H49.5592ZM46.2491 44.1803V34.2044C46.2491 33.7022 46.3671 33.2837 46.603 32.9489C46.8389 32.614 47.1451 32.3629 47.5218 32.1955C47.8985 32.0281 48.2961 31.9444 48.7146 31.9444C49.0456 31.9444 49.3157 31.9711 49.525 32.0243C49.7342 32.0776 49.8902 32.127 49.9929 32.1727L49.6049 33.3369C49.5364 33.3141 49.4413 33.2856 49.3195 33.2513C49.2016 33.2171 49.0456 33.2 48.8515 33.2C48.4064 33.2 48.0849 33.3122 47.8871 33.5367C47.693 33.7612 47.596 34.0903 47.596 34.524V44.1803H46.2491ZM54.7612 44.3629C53.9165 44.3629 53.1879 44.1765 52.5754 43.8036C51.9666 43.4269 51.4967 42.9019 51.1657 42.2285C50.8385 41.5512 50.6749 40.7637 50.6749 39.8658C50.6749 38.9679 50.8385 38.1765 51.1657 37.4916C51.4967 36.803 51.9571 36.2665 52.5468 35.8823C53.1404 35.4942 53.8328 35.3001 54.6242 35.3001C55.0808 35.3001 55.5316 35.3762 55.9768 35.5284C56.4219 35.6806 56.8271 35.9279 57.1923 36.2703C57.5576 36.609 57.8487 37.0579 58.0655 37.6172C58.2824 38.1765 58.3908 38.8651 58.3908 39.6831V40.2538H51.6337V39.0896H57.0211C57.0211 38.595 56.9222 38.1537 56.7244 37.7656C56.5303 37.3775 56.2526 37.0712 55.8911 36.8467C55.5335 36.6223 55.1112 36.51 54.6242 36.51C54.0877 36.51 53.6236 36.6432 53.2317 36.9095C52.8436 37.172 52.5449 37.5145 52.3357 37.9368C52.1264 38.3591 52.0218 38.8119 52.0218 39.2951V40.0712C52.0218 40.7332 52.1359 41.2944 52.3642 41.7548C52.5963 42.2113 52.9178 42.5595 53.3287 42.7992C53.7396 43.0351 54.2171 43.153 54.7612 43.153C55.115 43.153 55.4346 43.1035 55.7199 43.0046C56.0091 42.9019 56.2583 42.7497 56.4676 42.5481C56.6768 42.3426 56.8385 42.0877 56.9527 41.7833L58.2539 42.1486C58.1169 42.5899 57.8867 42.978 57.5633 43.3128C57.2399 43.6438 56.8404 43.9025 56.3648 44.089C55.8892 44.2716 55.3547 44.3629 54.7612 44.3629ZM62.4257 44.1803L59.7548 35.4143H61.1701L63.0649 42.1257H63.1562L65.0281 35.4143H66.4663L68.3153 42.1029H68.4066L70.3014 35.4143H71.7167L69.0458 44.1803H67.7218L65.8042 37.446H65.6673L63.7497 44.1803H62.4257ZM78.0173 44.1803V35.4143H79.3185V36.784H79.4326C79.6152 36.316 79.9101 35.9526 80.3172 35.6939C80.7243 35.4314 81.2132 35.3001 81.7839 35.3001C82.3622 35.3001 82.8435 35.4314 83.2278 35.6939C83.6158 35.9526 83.9183 36.316 84.1352 36.784H84.2265C84.451 36.3312 84.7877 35.9717 85.2366 35.7053C85.6856 35.4352 86.224 35.3001 86.8517 35.3001C87.6355 35.3001 88.2766 35.5455 88.775 36.0364C89.2734 36.5234 89.5226 37.2824 89.5226 38.3135V44.1803H88.1758V38.3135C88.1758 37.6667 87.9988 37.2044 87.645 36.9266C87.2912 36.6489 86.8746 36.51 86.3952 36.51C85.7788 36.51 85.3013 36.6965 84.9627 37.0693C84.6241 37.4384 84.4548 37.9064 84.4548 38.4732V44.1803H83.0851V38.1765C83.0851 37.6781 82.9234 37.2767 82.6 36.9723C82.2766 36.6641 81.86 36.51 81.3502 36.51C81.0001 36.51 80.6729 36.6032 80.3685 36.7897C80.068 36.9761 79.8245 37.2348 79.6381 37.5658C79.4554 37.893 79.3641 38.2716 79.3641 38.7015V44.1803H78.0173ZM91.9852 44.1803V35.4143H93.332V44.1803H91.9852ZM92.67 33.9533C92.4075 33.9533 92.1811 33.8639 91.9909 33.6851C91.8045 33.5062 91.7112 33.2913 91.7112 33.0402C91.7112 32.7891 91.8045 32.5741 91.9909 32.3953C92.1811 32.2165 92.4075 32.127 92.67 32.127C92.9325 32.127 93.157 32.2165 93.3435 32.3953C93.5337 32.5741 93.6288 32.7891 93.6288 33.0402C93.6288 33.2913 93.5337 33.5062 93.3435 33.6851C93.157 33.8639 92.9325 33.9533 92.67 33.9533ZM97.1458 38.907V44.1803H95.7989V35.4143H97.1001V36.784H97.2142C97.4197 36.3388 97.7317 35.9812 98.1502 35.7111C98.5687 35.4371 99.109 35.3001 99.771 35.3001C100.365 35.3001 100.884 35.4219 101.329 35.6654C101.774 35.9051 102.12 36.2703 102.368 36.7611C102.615 37.2481 102.739 37.8645 102.739 38.6102V44.1803H101.392V38.7015C101.392 38.0129 101.213 37.4764 100.855 37.0922C100.498 36.7041 100.007 36.51 99.3829 36.51C98.953 36.51 98.5687 36.6032 98.2301 36.7897C97.8953 36.9761 97.6309 37.2481 97.4368 37.6058C97.2428 37.9634 97.1458 38.3972 97.1458 38.907ZM110.724 40.5963V35.4143H112.071V44.1803H110.724V42.6964H110.633C110.427 43.1416 110.108 43.5202 109.674 43.8321C109.24 44.1403 108.692 44.2944 108.03 44.2944C107.483 44.2944 106.996 44.1746 106.569 43.9349C106.143 43.6914 105.809 43.3261 105.565 42.8391C105.322 42.3483 105.2 41.7301 105.2 40.9843V35.4143H106.547V40.893C106.547 41.5322 106.725 42.042 107.083 42.4225C107.445 42.803 107.905 42.9932 108.464 42.9932C108.799 42.9932 109.14 42.9076 109.486 42.7364C109.836 42.5652 110.129 42.3027 110.365 41.9488C110.604 41.595 110.724 41.1441 110.724 40.5963ZM118.35 35.4143V36.5557H113.807V35.4143H118.35ZM115.131 33.3141H116.478V41.6692C116.478 42.0496 116.533 42.335 116.644 42.5252C116.758 42.7117 116.902 42.8372 117.078 42.9019C117.256 42.9628 117.445 42.9932 117.643 42.9932C117.791 42.9932 117.913 42.9856 118.008 42.9704C118.103 42.9514 118.179 42.9361 118.236 42.9247L118.51 44.1346C118.419 44.1689 118.291 44.2031 118.128 44.2373C117.964 44.2754 117.757 44.2944 117.506 44.2944C117.125 44.2944 116.752 44.2126 116.387 44.049C116.026 43.8854 115.725 43.6362 115.485 43.3014C115.249 42.9666 115.131 42.5443 115.131 42.0344V33.3141ZM123.957 44.3629C123.113 44.3629 122.384 44.1765 121.772 43.8036C121.163 43.4269 120.693 42.9019 120.362 42.2285C120.035 41.5512 119.871 40.7637 119.871 39.8658C119.871 38.9679 120.035 38.1765 120.362 37.4916C120.693 36.803 121.153 36.2665 121.743 35.8823C122.337 35.4942 123.029 35.3001 123.82 35.3001C124.277 35.3001 124.728 35.3762 125.173 35.5284C125.618 35.6806 126.023 35.9279 126.389 36.2703C126.754 36.609 127.045 37.0579 127.262 37.6172C127.479 38.1765 127.587 38.8651 127.587 39.6831V40.2538H120.83V39.0896H126.217C126.217 38.595 126.118 38.1537 125.921 37.7656C125.727 37.3775 125.449 37.0712 125.087 36.8467C124.73 36.6223 124.307 36.51 123.82 36.51C123.284 36.51 122.82 36.6432 122.428 36.9095C122.04 37.172 121.741 37.5145 121.532 37.9368C121.323 38.3591 121.218 38.8119 121.218 39.2951V40.0712C121.218 40.7332 121.332 41.2944 121.56 41.7548C121.792 42.2113 122.114 42.5595 122.525 42.7992C122.936 43.0351 123.413 43.153 123.957 43.153C124.311 43.153 124.631 43.1035 124.916 43.0046C125.205 42.9019 125.454 42.7497 125.664 42.5481C125.873 42.3426 126.035 42.0877 126.149 41.7833L127.45 42.1486C127.313 42.5899 127.083 42.978 126.759 43.3128C126.436 43.6438 126.037 43.9025 125.561 44.089C125.085 44.2716 124.551 44.3629 123.957 44.3629ZM135.845 37.3775L134.635 37.7199C134.559 37.5183 134.447 37.3223 134.298 37.1321C134.154 36.9381 133.956 36.7783 133.705 36.6527C133.454 36.5272 133.132 36.4644 132.74 36.4644C132.204 36.4644 131.757 36.588 131.399 36.8353C131.045 37.0788 130.869 37.3889 130.869 37.7656C130.869 38.1004 130.99 38.3648 131.234 38.5589C131.477 38.7529 131.858 38.9146 132.375 39.044L133.676 39.3635C134.46 39.5538 135.044 39.8448 135.428 40.2367C135.813 40.6248 136.005 41.1251 136.005 41.7377C136.005 42.2399 135.86 42.6888 135.571 43.0845C135.286 43.4802 134.886 43.7922 134.373 44.0205C133.859 44.2488 133.262 44.3629 132.581 44.3629C131.687 44.3629 130.947 44.1689 130.361 43.7808C129.775 43.3927 129.404 42.8258 129.248 42.0801L130.526 41.7605C130.648 42.2323 130.878 42.5861 131.217 42.822C131.559 43.0579 132.006 43.1758 132.558 43.1758C133.186 43.1758 133.684 43.0427 134.053 42.7763C134.426 42.5062 134.612 42.1828 134.612 41.8061C134.612 41.5018 134.506 41.2469 134.293 41.0414C134.08 40.8322 133.752 40.6762 133.311 40.5734L131.85 40.231C131.047 40.0408 130.458 39.7459 130.081 39.3464C129.708 38.9431 129.522 38.439 129.522 37.8341C129.522 37.3395 129.661 36.9019 129.938 36.5214C130.22 36.141 130.602 35.8423 131.085 35.6254C131.572 35.4086 132.124 35.3001 132.74 35.3001C133.608 35.3001 134.289 35.4904 134.784 35.8708C135.282 36.2513 135.636 36.7535 135.845 37.3775Z" fill="#F8F8F8"/>
</svg>
